<mxfile host="Electron" modified="2024-06-16T12:55:26.622Z" agent="Mozilla/5.0 (Macintosh; Intel Mac OS X 10_15_7) AppleWebKit/537.36 (KHTML, like Gecko) draw.io/24.5.3 Chrome/124.0.6367.207 Electron/30.0.6 Safari/537.36" etag="ZebeU_6i-49LYxMERPJm" version="24.5.3" type="device">
  <diagram name="Seite-1" id="elRi-63E5Cxo_x0snrKB">
    <mxGraphModel dx="984" dy="661" grid="1" gridSize="10" guides="1" tooltips="1" connect="1" arrows="1" fold="1" page="1" pageScale="1" pageWidth="827" pageHeight="1169" math="0" shadow="0">
      <root>
        <mxCell id="0" />
        <mxCell id="1" parent="0" />
        <mxCell id="Cw56N7ESEalo3N-KiwGL-1" value="Stage (BÃ¼hne)" style="rounded=0;whiteSpace=wrap;html=1;" vertex="1" parent="1">
          <mxGeometry x="354" y="60" width="120" height="60" as="geometry" />
        </mxCell>
        <mxCell id="Cw56N7ESEalo3N-KiwGL-7" value="" style="edgeStyle=orthogonalEdgeStyle;rounded=0;orthogonalLoop=1;jettySize=auto;html=1;" edge="1" parent="1" source="Cw56N7ESEalo3N-KiwGL-2" target="Cw56N7ESEalo3N-KiwGL-4">
          <mxGeometry relative="1" as="geometry" />
        </mxCell>
        <mxCell id="Cw56N7ESEalo3N-KiwGL-2" value="Scene (Szene)" style="rounded=0;whiteSpace=wrap;html=1;" vertex="1" parent="1">
          <mxGeometry x="354" y="160" width="120" height="60" as="geometry" />
        </mxCell>
        <mxCell id="Cw56N7ESEalo3N-KiwGL-3" value="" style="endArrow=classic;html=1;rounded=0;entryX=0.5;entryY=0;entryDx=0;entryDy=0;" edge="1" parent="1" source="Cw56N7ESEalo3N-KiwGL-1" target="Cw56N7ESEalo3N-KiwGL-2">
          <mxGeometry width="50" height="50" relative="1" as="geometry">
            <mxPoint x="320" y="320" as="sourcePoint" />
            <mxPoint x="370" y="270" as="targetPoint" />
          </mxGeometry>
        </mxCell>
        <mxCell id="Cw56N7ESEalo3N-KiwGL-4" value="root (HBox)" style="rounded=0;whiteSpace=wrap;html=1;" vertex="1" parent="1">
          <mxGeometry x="354" y="260" width="120" height="60" as="geometry" />
        </mxCell>
        <mxCell id="Cw56N7ESEalo3N-KiwGL-8" value="Textfeld" style="rounded=0;whiteSpace=wrap;html=1;" vertex="1" parent="1">
          <mxGeometry x="160" y="400" width="120" height="60" as="geometry" />
        </mxCell>
        <mxCell id="Cw56N7ESEalo3N-KiwGL-10" value="" style="endArrow=classic;html=1;rounded=0;entryX=0.5;entryY=0;entryDx=0;entryDy=0;exitX=0.5;exitY=1;exitDx=0;exitDy=0;" edge="1" parent="1" source="Cw56N7ESEalo3N-KiwGL-4" target="Cw56N7ESEalo3N-KiwGL-8">
          <mxGeometry width="50" height="50" relative="1" as="geometry">
            <mxPoint x="384" y="320" as="sourcePoint" />
            <mxPoint x="370" y="320" as="targetPoint" />
          </mxGeometry>
        </mxCell>
        <mxCell id="Cw56N7ESEalo3N-KiwGL-11" value="Button" style="rounded=0;whiteSpace=wrap;html=1;" vertex="1" parent="1">
          <mxGeometry x="320" y="400" width="120" height="60" as="geometry" />
        </mxCell>
        <mxCell id="Cw56N7ESEalo3N-KiwGL-12" value="" style="endArrow=classic;html=1;rounded=0;entryX=0.5;entryY=0;entryDx=0;entryDy=0;exitX=0.5;exitY=1;exitDx=0;exitDy=0;" edge="1" parent="1" source="Cw56N7ESEalo3N-KiwGL-4" target="Cw56N7ESEalo3N-KiwGL-11">
          <mxGeometry width="50" height="50" relative="1" as="geometry">
            <mxPoint x="320" y="370" as="sourcePoint" />
            <mxPoint x="370" y="320" as="targetPoint" />
          </mxGeometry>
        </mxCell>
        <mxCell id="Cw56N7ESEalo3N-KiwGL-13" value="usw." style="text;html=1;align=center;verticalAlign=middle;whiteSpace=wrap;rounded=0;" vertex="1" parent="1">
          <mxGeometry x="670" y="415" width="60" height="30" as="geometry" />
        </mxCell>
        <mxCell id="Cw56N7ESEalo3N-KiwGL-14" value="&lt;h1 style=&quot;margin-top: 0px;&quot;&gt;&lt;font style=&quot;font-weight: normal; font-size: 14px;&quot;&gt;root ist ein Container (Pane, HBox usw) oder ein Control-Element (Button, Label, Textfeld usw).&lt;/font&gt;&lt;/h1&gt;" style="text;html=1;whiteSpace=wrap;overflow=hidden;rounded=0;" vertex="1" parent="1">
          <mxGeometry x="540" y="200" width="180" height="120" as="geometry" />
        </mxCell>
        <mxCell id="Cw56N7ESEalo3N-KiwGL-15" value="" style="endArrow=none;dashed=1;html=1;dashPattern=1 3;strokeWidth=2;rounded=0;entryX=1;entryY=0.5;entryDx=0;entryDy=0;exitX=0;exitY=0.5;exitDx=0;exitDy=0;" edge="1" parent="1" source="Cw56N7ESEalo3N-KiwGL-14" target="Cw56N7ESEalo3N-KiwGL-4">
          <mxGeometry width="50" height="50" relative="1" as="geometry">
            <mxPoint x="320" y="370" as="sourcePoint" />
            <mxPoint x="480" y="290" as="targetPoint" />
          </mxGeometry>
        </mxCell>
        <mxCell id="Cw56N7ESEalo3N-KiwGL-16" value="VBox" style="rounded=0;whiteSpace=wrap;html=1;" vertex="1" parent="1">
          <mxGeometry x="490" y="400" width="120" height="60" as="geometry" />
        </mxCell>
        <mxCell id="Cw56N7ESEalo3N-KiwGL-17" value="" style="endArrow=classic;html=1;rounded=0;entryX=0.5;entryY=0;entryDx=0;entryDy=0;exitX=0.5;exitY=1;exitDx=0;exitDy=0;" edge="1" parent="1" source="Cw56N7ESEalo3N-KiwGL-4" target="Cw56N7ESEalo3N-KiwGL-16">
          <mxGeometry width="50" height="50" relative="1" as="geometry">
            <mxPoint x="320" y="370" as="sourcePoint" />
            <mxPoint x="370" y="320" as="targetPoint" />
          </mxGeometry>
        </mxCell>
        <mxCell id="Cw56N7ESEalo3N-KiwGL-18" value="Button" style="rounded=0;whiteSpace=wrap;html=1;" vertex="1" parent="1">
          <mxGeometry x="600" y="525" width="120" height="60" as="geometry" />
        </mxCell>
        <mxCell id="Cw56N7ESEalo3N-KiwGL-19" value="Textfeld" style="rounded=0;whiteSpace=wrap;html=1;" vertex="1" parent="1">
          <mxGeometry x="410" y="525" width="120" height="60" as="geometry" />
        </mxCell>
        <mxCell id="Cw56N7ESEalo3N-KiwGL-20" value="" style="endArrow=classic;html=1;rounded=0;exitX=0.5;exitY=1;exitDx=0;exitDy=0;entryX=0.5;entryY=0;entryDx=0;entryDy=0;" edge="1" parent="1" source="Cw56N7ESEalo3N-KiwGL-16" target="Cw56N7ESEalo3N-KiwGL-19">
          <mxGeometry width="50" height="50" relative="1" as="geometry">
            <mxPoint x="320" y="370" as="sourcePoint" />
            <mxPoint x="370" y="320" as="targetPoint" />
          </mxGeometry>
        </mxCell>
        <mxCell id="Cw56N7ESEalo3N-KiwGL-21" value="" style="endArrow=classic;html=1;rounded=0;exitX=0.5;exitY=1;exitDx=0;exitDy=0;entryX=0.5;entryY=0;entryDx=0;entryDy=0;" edge="1" parent="1" source="Cw56N7ESEalo3N-KiwGL-16" target="Cw56N7ESEalo3N-KiwGL-18">
          <mxGeometry width="50" height="50" relative="1" as="geometry">
            <mxPoint x="320" y="370" as="sourcePoint" />
            <mxPoint x="370" y="320" as="targetPoint" />
          </mxGeometry>
        </mxCell>
        <mxCell id="Cw56N7ESEalo3N-KiwGL-22" value="usw." style="text;html=1;align=center;verticalAlign=middle;whiteSpace=wrap;rounded=0;" vertex="1" parent="1">
          <mxGeometry x="100" y="600" width="60" height="30" as="geometry" />
        </mxCell>
      </root>
    </mxGraphModel>
  </diagram>
</mxfile>
